# xmcd CD database file
#
# Track frame offsets:
#	150
#	21375
#	50178
#	83603
#	114928
#	150981
#	172632
#	209105
#
# Disc length: 3024 seconds
#
# Revision: 0
# Processed by: cddbd v1.5.2PL0 Copyright (c) Steve Scherf et al.
# Submitted via: CDex 1.79
#
DISCID=5d0bce08
DTITLE=Myriam Alter - Where is there
DYEAR=2007
DGENRE=Jazz
TTITLE0=Was it there
TTITLE1=Still in love
TTITLE2=Come with me
TTITLE3=In Sicily
TTITLE4=I'm telling you
TTITLE5=It could be there
TTITLE6=September 11
TTITLE7=Catch me there
EXTD=YEAR: 2007
EXTT0=
EXTT1=
EXTT2=
EXTT3=
EXTT4=
EXTT5=
EXTT6=
EXTT7=
PLAYORDER=
